# xmcd
#
# Track frame offsets: 
#        150
#        20379
#        34222
#        51831
#        65617
#        83103
#        98098
#        119443
#        132222
#        143825
#        159977
#        180477
#
# Disc length: 2645 seconds
#
# Revision: 0
# Processed by: cddbd v1.5.2PL0 Copyright (c) Steve Scherf et al.
# Submitted via: ExactAudioCopy v0.95b4
#
DISCID=9b0a530c
DTITLE=Musique des Andes - Illapa
DYEAR=1900
DGENRE=Folklore
TTITLE0=Ei Borrachito
TTITLE1=Canto del Cuculi
TTITLE2=Juanito
TTITLE3=Alturas
TTITLE4=Olvidate de mi
TTITLE5=Cabalito de madera
TTITLE6=Aguas claras
TTITLE7=Balla mi negra
TTITLE8=Mama India
TTITLE9=Puru runas
TTITLE10=Cuando Floresca el chuno
TTITLE11=19 mai
EXTD=
EXTT0=
EXTT1=
EXTT2=
EXTT3=
EXTT4=
EXTT5=
EXTT6=
EXTT7=
EXTT8=
EXTT9=
EXTT10=
EXTT11=
PLAYORDER=
